<svg xmlns="http://www.w3.org/2000/svg" width="28" height="28" viewBox="0 0 28 28">
    <g data-name="그룹 617">
        <path data-name="사각형 375" style="fill:none" d="M0 0h28v28H0z"/>
        <g data-name="그룹 616">
            <path data-name="패스 900" d="M8.031 13.942c-.211-2.891-.244-7 1.888-9.253a5.348 5.348 0 0 1 4.093-1.571 5.147 5.147 0 0 1 4.083 1.59c1.613 1.719 2.227 4.686 1.874 9.066l-1.4-.112c.314-3.91-.191-6.6-1.5-8a3.857 3.857 0 0 0-3.061-1.147 3.974 3.974 0 0 0-3.076 1.133c-1.955 2.069-1.619 6.675-1.508 8.189z"/>
            <path data-name="패스 901" d="M23.079 24.882H5.027l-3.1-14.308h15.084v1.4H3.668l2.488 11.508h15.786l2.4-11.508h-5.056v-1.4h6.779z"/>
            <g data-name="그룹 615">
                <path data-name="패스 902" d="M613.08 270.347c-3.071.041-3.161-2.539-3.036-4.7-.391-4.147 6.492-3.95 6.385-.822-.215 2.315-2.4 2.152-3.741 2.71-2.944.994 1.842 2.66 1.882.436h1.681c-.173 1.329-.972 2.376-3.171 2.376m.19-6.6c-1.5-.1-1.651 1.616-1.546 2.808 1.365-.084 5.221-1.915 1.546-2.808" style="fill:#fff" transform="translate(-599.151 -248.606)"/>
            </g>
        </g>
    </g>
</svg>
