<svg id="샐러드-포커스" xmlns="http://www.w3.org/2000/svg" width="36" height="36" viewBox="0 0 36 36">
    <defs>
        <style>
            .cls-1{fill:#ffb300}
        </style>
    </defs>
    <g id="그룹_306" data-name="그룹 306" transform="translate(-215.555 -452.598)">
        <path id="패스_564" data-name="패스 564" class="cls-1" d="M241.261 455.47c-.985-.749-1.51.147-2.305-.593-1.153-1.072-2.092-.772-2.748.386-.76 1.339-1.748-1.256-3.532.505-.914.9.2 2.162-2.205 2.589a1.993 1.993 0 0 0-.377 3.729c1.738.84.3 1.5 1.111 2.766s3.184 1.128 3.463-.279c.361-1.807 1.307-.382 2.47-1.005 1.555-.833.483-2.268 1.5-2.216.513.026 1.99.1 2.017-1.433.019-1.11-.215-1.148.539-1.745-.001 0 1.74-1.432.067-2.704z"/>
        <path id="패스_565" data-name="패스 565" class="cls-1" d="m223.154 476.431-.213-.056c-2.888-1.444-.067-3.859-2.015-4.229-1.684-.319-2.44-1.34-1.612-3.191.571-1.276-.739-1.544-.235-3.056.856-2.569 3.325-1.04 3.325-1.04 1.041.671.991.369 2.351-.068 1.88-.6 2.4 1.227 2.585 1.864.359 1.259 1.663-.644 3.325.906 1.243 1.159-.1 2.906 2.251 2.593 1.831-.244 2.988 2.6 1.779 4.107-1.139 1.424-2.448.2-2.848 2.114"/>
        <g id="그룹_305" data-name="그룹 305">
            <path id="패스_566" data-name="패스 566" d="m228.986 464.337 1.575-1.048-.021.169a2.175 2.175 0 0 0 .3 1.629 2.506 2.506 0 0 0 2.127 1.072 2.025 2.025 0 0 0 2.134-1.5c.121-.606.256-.605.337-.605a2.246 2.246 0 0 1 .356.05 3.554 3.554 0 0 0 .655.078 1.864 1.864 0 0 0 .9-.216 2.065 2.065 0 0 0 1.193-1.832c.009-.088.021-.186.037-.186h.01l.031-.079c.087 0 .2-.042.325-.042 1.346 0 2.13-.7 2.15-1.887 0-.268-.005-.482-.012-.648-.02-.447-.02-.45.392-.776a2.658 2.658 0 0 0 .954-1.842 1.994 1.994 0 0 0-.9-1.552 1.843 1.843 0 0 0-1.159-.412 3.63 3.63 0 0 0-.385.026.727.727 0 0 1-.727-.179 2.473 2.473 0 0 0-1.645-.78 2.067 2.067 0 0 0-1.781 1.27c-.031.054-.108.18-.166.18a1.551 1.551 0 0 1-.468-.179 2.759 2.759 0 0 0-1.223-.355 2.268 2.268 0 0 0-1.6.763 2.172 2.172 0 0 0-.582 1.3c-.1.59-.163.947-1.391 1.165a2.278 2.278 0 0 0-1.842 2 2.421 2.421 0 0 0 1.351 2.555c.061.029.115.057.166.085l-1.569 1.044zm1.3-2.645a1.544 1.544 0 0 1-.864-1.647 1.429 1.429 0 0 1 1.128-1.258c1.7-.3 1.954-1.029 2.1-1.878a1.357 1.357 0 0 1 .335-.83 1.45 1.45 0 0 1 .988-.511 2.02 2.02 0 0 1 .842.267 1.994 1.994 0 0 0 .849.266 1.055 1.055 0 0 0 .927-.622c.31-.549.654-.827 1.02-.827a1.684 1.684 0 0 1 1.049.545 1.479 1.479 0 0 0 1.058.434 3.347 3.347 0 0 0 .359-.025 2.752 2.752 0 0 1 .291-.021.955.955 0 0 1 .63.233 1.171 1.171 0 0 1 .554.868 1.746 1.746 0 0 1-.629 1.145 1.411 1.411 0 0 0-.716 1.493c.007.163.016.346.011.587-.008.5-.166 1.013-1.275 1.013-.11 0-.207-.005-.282-.009-.886-.046-.951.669-.991 1.046a1.3 1.3 0 0 1-.736 1.222.994.994 0 0 1-.487.118 2.8 2.8 0 0 1-.5-.061 2.947 2.947 0 0 0-.514-.062c-.837 0-1.083.747-1.2 1.31a1.2 1.2 0 0 1-1.276.8 1.627 1.627 0 0 1-1.389-.667 1.333 1.333 0 0 1-.167-1.042 1.946 1.946 0 0 0-.024-.834l2.882-1.919a6.812 6.812 0 0 1 1.836 1.143l.559-.672a9.352 9.352 0 0 0-1.528-1.048l1.68-1.118a12.415 12.415 0 0 1 2.062 1.013l.51-.711a10.417 10.417 0 0 0-1.7-.885l1.249-.831-.485-.728-2.193 1.46a8.99 8.99 0 0 0-.2-1.816l-.856.179a4.915 4.915 0 0 1 .087 2.235l.036.023-1.283.854h-.036v.023l-.673.448a15.749 15.749 0 0 0 .081-2.033l-.875.023a9.078 9.078 0 0 1-.23 2.627l.059.026-1.509 1a3.273 3.273 0 0 0-.566-.346z"/>
            <path id="패스_567" data-name="패스 567" d="M242.769 476.233c.4-1.173.894-1.222 1.6-1.286a2.717 2.717 0 0 0 1.679-.591 2.661 2.661 0 0 0 .784-3.471c-.284-.728-.252-.771.118-.944a2.769 2.769 0 0 0 1.707-1.776 2.859 2.859 0 0 0-.766-2.417 1.045 1.045 0 0 1-.176-1.035 2.385 2.385 0 0 0-.324-1.947 2.465 2.465 0 0 0-1.824-1.265 3.314 3.314 0 0 0-2.379 1.013c-.49.527-.489.527-1.113.449-.211-.026-.475-.059-.816-.08a2.236 2.236 0 0 0-1.716.529 3.284 3.284 0 0 0-.818 2.362.455.455 0 0 1-.018.133 1.965 1.965 0 0 1-.43.039 2.677 2.677 0 0 0-2.477 1.291 2.764 2.764 0 0 0-.331 1.916c.071.688.086.831-.876.945a2.185 2.185 0 0 1-1.735-.174c-.96.127-.981-.015-1.083-.7a2.762 2.762 0 0 0-.793-1.774 2.68 2.68 0 0 0-2.72-.64 2.037 2.037 0 0 1-.426.069.48.48 0 0 1-.05-.125 3.288 3.288 0 0 0-1.376-2.087 2.235 2.235 0 0 0-1.793-.088c-.326.1-.573.2-.771.279-.585.228-.585.23-1.2-.165a3.308 3.308 0 0 0-2.55-.39 2.465 2.465 0 0 0-1.454 1.676 2.379 2.379 0 0 0 .166 1.967 1.046 1.046 0 0 1 .085 1.047 2.858 2.858 0 0 0-.146 2.53 2.766 2.766 0 0 0 2.092 1.3c.389.074.434.115.32.932a2.832 2.832 0 0 0 .481 2.454h-3.641v.452c0 5.474 5.294 10.763 10.98 10.763h8.34a12.942 12.942 0 0 0 7.391-2.54l-.531-.7a11.982 11.982 0 0 1-6.86 2.339h-8.34c-4.97 0-9.857-4.594-10.151-9.354l29.459.005a8.574 8.574 0 0 1-1.837 4.721l.683.541a9.36 9.36 0 0 0 1.974-5.741v-.45zm-6.387-7.174a1.891 1.891 0 0 1 .189-1.325 1.768 1.768 0 0 1 1.727-.868c.492-.013 1.315-.035 1.344-1.066a2.509 2.509 0 0 1 .519-1.709 1.331 1.331 0 0 1 1.038-.289c.313.019.56.05.759.075a1.713 1.713 0 0 0 1.9-.73 2.406 2.406 0 0 1 1.621-.73 1.6 1.6 0 0 1 1.14.846 1.476 1.476 0 0 1 .193 1.28 1.931 1.931 0 0 0 .36 1.777 2.02 2.02 0 0 1 .592 1.633c-.1.443-.509.831-1.2 1.154-1.192.557-.826 1.493-.585 2.112a1.787 1.787 0 0 1-.527 2.441 1.854 1.854 0 0 1-1.157.37c-.837.077-1.87.177-2.469 2.2l-4.9-.006a95.979 95.979 0 0 0 2.382-2.845 8.535 8.535 0 0 1 3.013.419l.24-.888a13.248 13.248 0 0 0-2.5-.476c.6-.759 1.187-1.509 1.733-2.22a6.641 6.641 0 0 1 2.9.344l.258-.883a11.413 11.413 0 0 0-2.415-.44c1.549-2.044 2.637-3.558 2.66-3.589l-.748-.537c-.018.026-.738 1.027-1.833 2.491a16.984 16.984 0 0 0-.98-2.022l-.788.476a18.915 18.915 0 0 1 1.123 2.4 190.85 190.85 0 0 1-1.721 2.243 11.515 11.515 0 0 0-1.28-2.313l-.751.532a7.777 7.777 0 0 1 1.323 2.685q-.449.567-.909 1.138l-.022.021q-.428.529-.859 1.052a13.513 13.513 0 0 0-.964-2.436l-.818.422a9.016 9.016 0 0 1 1.008 2.939c-.423.5-.843.982-1.25 1.437l.048.043h-2.261v-.007a69.24 69.24 0 0 1-.567-.376 5.33 5.33 0 0 1 .293-.063 2.715 2.715 0 0 0 1.8-1 3.232 3.232 0 0 0 .143-3.53 3.287 3.287 0 0 0-.18-.281c1.419-.26 1.465-1.048 1.378-1.901zm-14.31 4.822c.1-.683.239-1.715-1.06-1.962a1.927 1.927 0 0 1-1.448-.822 2.024 2.024 0 0 1 .17-1.728 1.928 1.928 0 0 0-.09-1.811 1.475 1.475 0 0 1-.128-1.288 1.6 1.6 0 0 1 .892-1.1 2.394 2.394 0 0 1 1.747.3 1.718 1.718 0 0 0 2.023.244c.187-.073.419-.164.717-.26a1.345 1.345 0 0 1 1.078.024 2.514 2.514 0 0 1 .925 1.527c.282.992 1.085.81 1.565.7a1.767 1.767 0 0 1 1.888.415 1.886 1.886 0 0 1 .511 1.237c.135.908.4 1.705 2.115 1.476a1.491 1.491 0 0 1 1.418.861 2.316 2.316 0 0 1-.059 2.5 1.806 1.806 0 0 1-1.262.674 2.254 2.254 0 0 0-.989.372q-.348-.241-.7-.488a8.585 8.585 0 0 1 .234-3.156l-.9-.207a13.37 13.37 0 0 0-.333 2.652c-.669-.483-1.33-.971-1.966-1.449a7.874 7.874 0 0 1 .621-2.916l-.86-.33a11.566 11.566 0 0 0-.669 2.558c-.82-.625-1.58-1.218-2.243-1.741a16.987 16.987 0 0 1 .391-3.1l-.881-.267a14.426 14.426 0 0 0-.389 2.673 140.908 140.908 0 0 1-1.664-1.349l-.588.708c.026.021 1.131.937 2.775 2.23a11.543 11.543 0 0 0-2.211 1.016l.468.793a6.834 6.834 0 0 1 2.709-1.055 157.8 157.8 0 0 0 2.261 1.723 13.151 13.151 0 0 0-2.316 1.082l.452.8a8.219 8.219 0 0 1 2.839-1.148.147.147 0 0 1-.049-.025l.011-.015c.81.6 1.642 1.192 2.467 1.762a3.145 3.145 0 0 0-.079.227l-8.334-.009.011-.022a1.813 1.813 0 0 1-1.07-2.306z"/>
        </g>
    </g>
    <path id="사각형_218" data-name="사각형 218" style="fill:none" d="M0 0h36v36H0z"/>
</svg>
