<?xml version="1.0" encoding="iso-8859-1"?>
<!-- Uploaded to: SVG Repo, www.svgrepo.com, Generator: SVG Repo Mixer Tools -->
<svg height="800px" width="800px" version="1.1" id="Layer_1" xmlns="http://www.w3.org/2000/svg" xmlns:xlink="http://www.w3.org/1999/xlink" 
	 viewBox="0 0 512 512" xml:space="preserve">
<g transform="translate(1 1)">
	<polygon style="fill:#FFFFFF;" points="7.828,255 166.724,255 166.724,7.828 7.828,7.828 	"/>
	<g>
		<polygon style="fill:#CCCCCC;" points="96.103,255 255,255 255,7.828 96.103,7.828 		"/>
		<polygon style="fill:#CCCCCC;" points="255,502.172 502.172,502.172 502.172,255 255,255 		"/>
	</g>
	<polygon style="fill:#E2E3E5;" points="34.31,255 228.517,255 228.517,7.828 34.31,7.828 	"/>
	<polygon style="fill:#FFFFFF;" points="7.828,502.172 166.724,502.172 166.724,255 7.828,255 	"/>
	<polygon style="fill:#E0E0E0;" points="96.103,502.172 255,502.172 255,255 96.103,255 	"/>
	<polygon style="fill:#F0F0F0;" points="34.31,502.172 228.517,502.172 228.517,255 34.31,255 	"/>
	<polygon style="fill:#E2E3E5;" points="255,502.172 475.69,502.172 475.69,255 255,255 	"/>
	<polygon style="fill:#E0E0E0;" points="255,255 502.172,255 502.172,7.828 255,7.828 	"/>
	<polygon style="fill:#F0F0F0;" points="255,255 475.69,255 475.69,7.828 255,7.828 	"/>
	<g>
		<path style="fill:#B6B6B6;" d="M184.379,140.241H78.448c-5.297,0-8.828-3.531-8.828-8.828c0-5.297,3.531-8.828,8.828-8.828
			h105.931c5.297,0,8.828,3.531,8.828,8.828C193.207,136.71,189.676,140.241,184.379,140.241z"/>
		<path style="fill:#B6B6B6;" d="M131.414,193.207c-5.297,0-8.828-3.531-8.828-8.828V78.448c0-5.297,3.531-8.828,8.828-8.828
			c5.297,0,8.828,3.531,8.828,8.828v105.931C140.241,189.676,136.71,193.207,131.414,193.207z"/>
		<path style="fill:#B6B6B6;" d="M431.552,140.241H325.621c-5.297,0-8.828-3.531-8.828-8.828c0-5.297,3.531-8.828,8.828-8.828
			h105.931c5.297,0,8.828,3.531,8.828,8.828C440.379,136.71,436.848,140.241,431.552,140.241z"/>
		<path style="fill:#B6B6B6;" d="M502.172,511H7.828C2.531,511-1,507.469-1,502.172V7.828C-1,2.531,2.531-1,7.828-1h494.345
			C507.469-1,511,2.531,511,7.828v494.345C511,507.469,507.469,511,502.172,511z M16.655,493.345h476.69V16.655H16.655V493.345z"/>
		<path style="fill:#B6B6B6;" d="M255,263.828H7.828C2.531,263.828-1,260.297-1,255V7.828C-1,2.531,2.531-1,7.828-1H255
			c5.297,0,8.828,3.531,8.828,8.828V255C263.828,260.297,260.297,263.828,255,263.828z M16.655,246.172h229.517V16.655H16.655
			V246.172z"/>
		<path style="fill:#B6B6B6;" d="M502.172,263.828H255c-5.297,0-8.828-3.531-8.828-8.828V7.828C246.172,2.531,249.703-1,255-1
			h247.172C507.469-1,511,2.531,511,7.828V255C511,260.297,507.469,263.828,502.172,263.828z M263.828,246.172h229.517V16.655
			H263.828V246.172z"/>
		<path style="fill:#B6B6B6;" d="M255,511H7.828C2.531,511-1,507.469-1,502.172V255c0-5.297,3.531-8.828,8.828-8.828H255
			c5.297,0,8.828,3.531,8.828,8.828v247.172C263.828,507.469,260.297,511,255,511z M16.655,493.345h229.517V263.828H16.655V493.345z
			"/>
		<path style="fill:#B6B6B6;" d="M502.172,511H255c-5.297,0-8.828-3.531-8.828-8.828V255c0-5.297,3.531-8.828,8.828-8.828h247.172
			c5.297,0,8.828,3.531,8.828,8.828v247.172C511,507.469,507.469,511,502.172,511z M263.828,493.345h229.517V263.828H263.828
			V493.345z"/>
		<path style="fill:#B6B6B6;" d="M431.552,413.897H325.621c-5.297,0-8.828-3.531-8.828-8.828s3.531-8.828,8.828-8.828h105.931
			c5.297,0,8.828,3.531,8.828,8.828S436.848,413.897,431.552,413.897z"/>
		<path style="fill:#B6B6B6;" d="M431.552,360.931H325.621c-5.297,0-8.828-3.531-8.828-8.828s3.531-8.828,8.828-8.828h105.931
			c5.297,0,8.828,3.531,8.828,8.828S436.848,360.931,431.552,360.931z"/>
		<path style="fill:#B6B6B6;" d="M131.414,387.414c-2.648,0-4.414-0.883-6.179-2.648c-3.531-3.531-3.531-8.828,0-12.359
			l44.138-44.138c3.531-3.531,8.828-3.531,12.359,0c3.531,3.531,3.531,8.828,0,12.359l-44.138,44.138
			C135.828,386.531,134.062,387.414,131.414,387.414z"/>
		<path style="fill:#B6B6B6;" d="M87.276,431.552c-2.648,0-4.414-0.883-6.179-2.648c-3.531-3.531-3.531-8.828,0-12.359
			l44.138-44.138c3.531-3.531,8.828-3.531,12.359,0c3.531,3.531,3.531,8.828,0,12.359l-44.138,44.138
			C91.69,430.669,89.924,431.552,87.276,431.552z"/>
		<path style="fill:#B6B6B6;" d="M175.552,431.552c-2.648,0-4.414-0.883-6.179-2.648l-44.138-44.138
			c-3.531-3.531-3.531-8.828,0-12.359s8.828-3.531,12.359,0l44.138,44.138c3.531,3.531,3.531,8.828,0,12.359
			C179.966,430.669,178.2,431.552,175.552,431.552z"/>
		<path style="fill:#B6B6B6;" d="M131.414,387.414c-2.648,0-4.414-0.883-6.179-2.648l-44.138-44.138
			c-3.531-3.531-3.531-8.828,0-12.359c3.531-3.531,8.828-3.531,12.359,0l44.138,44.138c3.531,3.531,3.531,8.828,0,12.359
			C135.828,386.531,134.062,387.414,131.414,387.414z"/>
	</g>
</g>
</svg>